<svg version="1" xmlns="http://www.w3.org/2000/svg" width="933.333" height="933.333" viewBox="0 0 700.000000 700.000000"><path d="M265.1 96.1c-46.9 3.8-95.1 25.1-125.7 55.6l-10.3 10.1-7.6-2.4c-27.8-8.8-63.4 1.1-85.1 23.7-10 10.5-15.8 21.7-18.5 35.7-1.5 7.9-.6 26.3 1.7 34.7 3.5 13.1 14.1 27.5 25.2 34.4 1 .6 1 2.4.1 8.7-2.2 15.7.9 33.4 8.7 49.2l4.5 9.3-2.6 11.7c-3.3 14.3-4.4 36.8-2.6 50.7 4.9 37.2 23 70.8 55.1 102.5 13.3 13.1 24.2 21.7 37.8 29.7 43.3 25.5 105.1 34.7 169.7 25.3 7.2-1 14.4-2.2 16-2.5 2.9-.6 3.1-.3 7 7 10.7 20.6 36.4 47.7 64.2 67.7 11 7.9 33.1 21.7 36 22.4 3.3.9 8.2-1.4 9.7-4.5.7-1.4 1.6-6.9 1.9-12.1 1.4-23.2 14.5-46.8 39.8-71.7 17.6-17.2 26.9-24.6 61.4-48.3 36.6-25.2 54.3-39 70.9-55 43.7-42.2 63.6-89 63.6-149.5 0-107.7-60.5-190-162.5-221.3-26.1-8-50-11.3-82-11.3-32.1.1-54.1 1.8-80 6.2l-12 2-8.6-2c-22.4-5.3-54-7.8-75.8-6zm40.7 19.9c.8.4-1.3 1.7-5.5 3.5-41.3 17.1-74.1 47.8-94.7 88.7l-5.9 11.5-6.1-2.4c-15-5.8-42.1-8.7-59.7-6.3-4.9.6-9.3.9-9.6.6-.3-.3.9-4.1 2.7-8.3 11.6-27.9 33-49.8 63.9-65.6 26.9-13.8 50.6-20.7 77.1-22.6 11.3-.9 35.7-.3 37.8.9zm169.7.5c37.6 4.9 71 16.6 99.2 34.8 32 20.7 54.4 45.6 70.8 78.7 2.6 5.2 4.1 8.8 3.3 8-.8-.8-4.8-5.3-8.9-9.9-4.1-4.7-12.3-12.7-18.4-17.9-48.1-41.3-105.1-55.8-162-41.4l-7 1.7-8-3.6c-12.2-5.6-23.9-8.2-37.1-8.1-13 0-21.8 1.9-31.9 6.8-19.7 9.6-32.7 25-38.1 45.4-1 3.6-2 6.8-2.3 7.2-.4.4-4.7-.6-9.6-2.2-17.9-5.7-43-7.6-60.7-4.5-14.8 2.6-28.8 8.1-43 16.7-6.8 4.2-6.2 1.5 3.2-15.9 20.7-38.5 52.4-65.1 95.1-80.1 24.6-8.6 56.8-14.6 88.4-16.5 17.1-1.1 56.1-.6 67 .8zm-361.2 60.7l3.7 1.1-2.5 4.4c-1.4 2.3-3.9 7.3-5.5 11.1l-2.8 6.7-7.4.1c-10.6.1-19.3 4.1-28 12.9-8 8.1-11.1 20.2-7.3 29.1 1.5 3.6 1.4 3.6-2.9 9.7-2.4 3.4-5.6 8.6-7.1 11.6l-2.7 5.3-3.8-3.7c-11.8-11.6-15.5-37.2-7.7-54.6 8.1-18.2 27-30.8 52.7-35.3 3.7-.7 17 .3 21.3 1.6zm315.4 4.5c23.3 8.5 37.9 24.7 40.6 45.3 1.9 14.7-1.8 30-9.5 38.9-2.9 3.4-13.6 12.1-14.9 12.1-.3 0-1.4-1.9-2.5-4.1-1-2.3-3.9-7.2-6.5-10.9l-4.7-6.8 3-2.9c4.1-3.8 5.8-8.2 5.8-15 0-11.5-8.4-22.9-21.4-29.3-9.4-4.7-17.3-5.2-24.8-1.8-5.9 2.8-11.1 7.5-13.8 12.9l-1.9 3.6-8.8-1.8c-4.8-1-10.3-1.8-12.2-1.9-3 0-3.3-.2-2.7-2.5 3.8-15.2 13.5-27.2 27.4-34.1 9-4.4 14.4-5.4 27.2-5 9.7.3 12.8.8 19.7 3.3zm85.4 1.3c44.5 4.3 87.8 28.6 117.8 66 18 22.4 29.9 46.5 33.1 67 2.4 15.4.3 41.5-4.9 62.3-9.7 38.2-30 68.6-66.5 99.2-12.8 10.7-43.8 33.5-44.7 32.9-.3-.2-.9-3.3-1.3-6.9-1.7-16.3 4.3-30.7 21.4-51.5 13-15.8 18.1-23.3 24.3-35.6 9.2-18.4 13.5-35.3 14.4-55.9 1.1-28-5-51.9-20.1-78.4-21.8-38.2-51.1-59.9-88.3-65.6-5.9-1-11.3-1.8-11.9-2-.5-.2-1.6-2.3-2.3-4.6-1.6-5.2-7-14.8-11.7-20.5l-3.3-4.1 8.7-1.2c17-2.2 22.2-2.4 35.3-1.1zM167 230.5c11.3 1.7 21.3 4.6 29.5 8.7 8.2 4 8.4 4.3 4.8 8-6.7 7.2-14.6 21.8-18 33.1l-1.5 4.9-3.1-2.9c-4.6-4.3-7.7-5.9-14.2-7.9-17.3-5-36.9 3.7-44.4 19.5-2.3 5-2.6 6.8-2.6 16.6 0 10.4.2 11.4 3.3 17.8 3.9 7.9 11.6 16.1 18.1 19.1 3.7 1.7 6.5 2.1 14.6 2.1 12.2-.1 18.9-2.4 26.5-9.1 2.7-2.5 5-4 5-3.2 0 .7 1.3 3.8 2.8 6.9l2.7 5.7-5.9.6c-22.6 2.3-36.7 11.3-39.1 24.9-.6 3.1-1.4 4.1-4.7 5.8l-4 2-9.1-2.6c-48.1-13.8-73.2-51.9-61.6-93.6 11.1-40.1 53.2-63.7 100.9-56.4zm136.3 0c34.8 5.2 57.2 24.2 64.5 54.5 7.2 29.7 1 54.5-18.4 73.7-13.2 13-30.6 21.8-49.1 25-8.4 1.4-11.2 1.5-19.7.4-37.9-4.7-67.6-25.6-78.4-55.3-2.5-6.7-2.7-8.5-2.7-22.3.1-13.7.3-15.7 2.8-22.8 13.7-39.2 53.7-60.3 101-53.2zm198.2 5.4c26.6 5.5 46.8 19.7 63.6 44.6 28.5 42.1 32.6 85.1 12.2 127.3-5 10.4-11.2 19.4-22.5 32.8-13.5 16-19.7 26.8-23.4 40.5-2.2 8-2.2 25.6-.2 35l1.5 6.6-13.1 9.4c-18.2 13.1-29.1 22.1-43.8 36.7l-12.7 12.5-4.7-3.8c-14-11.5-23.8-30.9-23.8-47.5 0-19.6 10.8-40.5 41.7-80.2 7.4-9.5 15.9-20.7 18.9-24.8 21.3-29.2 30.8-56.2 29.5-84.5-1.4-29.7-14.2-54.1-38.5-73.2-2.2-1.7-2.2-2-.8-5.3 2-4.9 4.6-18 4.6-23.5 0-5.2-.6-5.1 11.5-2.6zM379 244.2c25.2 8 42.9 24.9 50.8 48.6 2.4 7 2.6 9.2 2.7 24.2 0 14.8-.2 17.2-2.4 23.3-3.9 11.4-10.6 20.1-27.9 36.4-26.7 25.2-41.4 40.4-48.4 50.3-12.5 17.6-24.5 45-29.3 67-2.6 11.6-3.1 32.8-1.1 44.3.9 5.3 2.1 10.9 2.6 12.3.6 1.5.9 2.8.7 3-.2.3-6.9 1.4-14.8 2.6-19.8 3-68.3 3.3-85.7.5-48.4-7.7-82.6-25.5-112.9-58.7-32.3-35.5-46-73.2-41.3-113.9.5-4.7 1.3-8.8 1.8-9.3.4-.4 3.9 1.6 7.8 4.5 7.1 5.4 21.1 13 29.6 16.2l4.7 1.7-3.9 5.2c-5 6.6-7.5 12.4-9 20.5-2.2 12.2 2.4 26.5 10.4 32.6 4.1 3.1 12.5 6.5 16.1 6.5h2.5v13.7c0 20.8 3.3 32.6 11 40.3 6 6 10.2 7.5 21 7.5 8.3 0 10.2-.3 15-2.7 3-1.5 6.3-3.3 7.2-4 1.4-1 2.1-.9 4.1 1 9.6 9 30.5 7.9 41.4-2.1 9.4-8.7 12.3-17.3 12.3-37.3v-13.2l4.7-.7c12.5-1.9 23-9 27.9-19.2 4.9-9.9 4.4-26.9-1-37.3l-2.4-4.5h15.2c13.4 0 16.2-.4 25-2.8 34.7-9.6 61.9-33.7 72.2-63.9 3.5-10.4 4.8-20.5 4.1-33.6-1.1-22.4-5.9-37.7-17-54-6.4-9.3-6.8-9.1 6.3-5zm98.6 40.6c18.3 13.4 29.4 38.8 28.1 64.6-.7 13.7-3.3 23.9-9.6 37.2-6.4 13.3-13 23.2-33 49.3-9.2 11.9-18.8 24.6-21.4 28.3-10.3 14.6-20.9 35.4-24.3 47.9-2.1 7.7-2.4 27.2-.5 33.9 5.2 18.3 17.1 36.3 31.3 47.6l3.8 2.9-3.6 5.5c-7.2 11.2-13.1 25.1-16.1 38.1l-.8 3.7-9-6c-60.1-40.2-87.5-85.8-80.1-133.5 3.1-20.2 12.4-43.9 24.3-61.8 8.9-13.4 17.1-22.4 35.9-39.4 25.3-22.9 33.7-32.2 40.7-45.2 7.7-14 10.9-32.6 8.8-50.5-.6-5.3-1-9.8-.9-9.9.2-.2 4.4-3 9.4-6.4 5-3.3 9.7-6.7 10.4-7.6 1.7-2 2.1-1.9 6.6 1.3zM173.2 305c1.5 1.6 3 4.1 3.4 5.5 1.9 7.5-3.6 15.5-10.7 15.5-5.2 0-8.4-2.2-10.4-7.2-5-12.5 9.1-23.4 17.7-13.8zm67.1 95.2c7.6 3.8 14.2 10 17.5 16.3 3.6 6.8 3.8 17.4.5 22.1-3 4.2-9.1 6.5-17.2 6.5-8.4 0-14.1-1.8-23.8-7.4-9.3-5.3-15.1-7.4-24.3-8.7-12.4-1.8-22.3.3-38.5 7.9-11.1 5.1-12.6 5.6-19.2 5.6s-7.5-.3-10-2.7c-3.8-3.9-4.4-12.4-1.3-19.6 2.8-6.4 11.1-14.4 19.9-19.1l6.3-3.3 3.1 3c15.1 14.6 51.7 13.1 67.2-2.8l3.7-3.8 5.2 1.5c2.8.8 7.7 2.8 10.9 4.5zm-62.5 77.9c-.3 18-.5 19.9-2.3 21.9-4.4 5-13.3 6.5-17.7 3-4.7-3.6-6-9-6.5-27l-.5-16.5 9.2-4.4c5-2.4 11-4.9 13.3-5.6l4.2-1.2.3 5.1c.2 2.8.2 13.9 0 24.7zm30.1-23.7c4.2 2.5 9.8 5.4 12.5 6.6l4.8 2-.4 15.3c-.3 12.9-.7 15.8-2.3 18.6-3.2 5.5-6.9 7.6-13 7.6-6.5 0-9.2-2.1-10.5-8.1-1.4-6-1.3-46.4.2-46.4.6 0 4.5 2 8.7 4.4z"/><path d="M307.2 275c-12.1 4-21.4 14.7-24.2 28.2-3.5 16.2 6.1 36.3 20.6 43.4 13.7 6.7 34.7 2.6 45.1-8.7 12.2-13.4 10.6-40.2-3.3-54.4-9.2-9.6-24.5-12.9-38.2-8.5zm28.7 27.4c5.8 3 8.1 10 5.6 16.4-2 4.9-5.2 7.2-10 7.2-9.3 0-14.7-11-9.2-19.1 3.8-5.6 8.4-7.1 13.6-4.5z"/></svg>